<?xml version="1.0" standalone="no"?>
<!DOCTYPE svg PUBLIC "-//W3C//DTD SVG 20010904//EN"
 "http://www.w3.org/TR/2001/REC-SVG-20010904/DTD/svg10.dtd">
<svg version="1.0" xmlns="http://www.w3.org/2000/svg"
 width="512.000000pt" height="512.000000pt" viewBox="0 0 512.000000 512.000000"
 preserveAspectRatio="xMidYMid meet">
<metadata>
Created by potrace 1.11, written by Peter Selinger 2001-2013
</metadata>
<g transform="translate(0.000000,512.000000) scale(0.100000,-0.100000)"
fill="#000000" stroke="none">
<path d="M2379 5116 c-2 -2 -40 -6 -83 -10 -44 -4 -82 -8 -85 -10 -3 -2 -31
-7 -61 -11 -30 -3 -75 -11 -100 -17 -25 -5 -56 -12 -70 -14 -14 -3 -72 -18
-129 -35 -539 -155 -1005 -478 -1344 -932 l-80 -107 -74 74 c-80 80 -122 102
-178 92 -41 -8 -88 -55 -96 -97 -13 -59 7 -94 112 -199 l99 -100 -45 -96 c-87
-186 -156 -395 -194 -589 -40 -200 -46 -267 -45 -515 0 -183 3 -241 19 -345 3
-16 7 -43 9 -60 37 -265 165 -623 307 -860 10 -16 27 -46 38 -65 19 -36 131
-195 166 -239 73 -89 143 -167 211 -236 51 -51 90 -101 108 -138 66 -136 215
-239 376 -260 19 -3 89 -32 155 -65 252 -127 508 -211 751 -247 22 -4 50 -8
64 -11 144 -26 530 -26 708 1 75 12 90 14 142 25 30 6 66 13 80 16 128 24 388
118 544 196 66 32 125 63 131 68 6 5 42 16 80 26 141 34 242 105 313 217 22
34 69 90 105 124 324 304 562 687 696 1120 18 56 34 113 37 128 3 15 11 55 19
89 36 154 49 296 50 521 0 166 -6 285 -19 360 -3 17 -8 44 -10 60 -3 17 -9 53
-15 80 -6 28 -13 61 -15 75 -55 276 -217 639 -401 900 -414 583 -1032 963
-1735 1065 -19 3 -53 7 -75 11 -44 6 -460 15 -466 10z"/>
</g>
</svg>
