<svg width="20" height="20" viewBox="0 0 20 20" fill="none" xmlns="http://www.w3.org/2000/svg">
<g clip-path="url(#clip0)">
<path d="M9.85748 9.63408C11.181 9.63408 12.327 9.15938 13.2635 8.22279C14.1998 7.28636 14.6747 6.14058 14.6747 4.81689C14.6747 3.49365 14.2 2.34771 13.2634 1.41098C12.3268 0.4747 11.1809 0 9.85748 0C8.53378 0 7.388 0.4747 6.45157 1.41113C5.51514 2.34756 5.04028 3.49349 5.04028 4.81689C5.04028 6.14058 5.51514 7.28652 6.45157 8.22295C7.38831 9.15922 8.53424 9.63408 9.85748 9.63408ZM7.28043 2.23983C7.99896 1.5213 8.84186 1.17203 9.85748 1.17203C10.873 1.17203 11.716 1.5213 12.4347 2.23983C13.1532 2.95852 13.5027 3.80157 13.5027 4.81689C13.5027 5.83251 13.1532 6.6754 12.4347 7.39409C11.716 8.11278 10.873 8.46205 9.85748 8.46205C8.84216 8.46205 7.99927 8.11263 7.28043 7.39409C6.56174 6.67555 6.21231 5.83251 6.21231 4.81689C6.21231 3.80157 6.56174 2.95852 7.28043 2.23983Z" fill="#676767"/>
<path d="M18.2863 15.3791C18.2593 14.9894 18.2047 14.5643 18.1242 14.1154C18.0431 13.6631 17.9385 13.2356 17.8134 12.8448C17.684 12.4409 17.5084 12.042 17.291 11.6598C17.0656 11.2631 16.8007 10.9176 16.5034 10.6333C16.1926 10.3359 15.8121 10.0968 15.372 9.92242C14.9335 9.74893 14.4475 9.66104 13.9276 9.66104C13.7234 9.66104 13.526 9.74481 13.1447 9.99307C12.91 10.1461 12.6355 10.3231 12.3291 10.5189C12.0671 10.6858 11.7122 10.8422 11.2738 10.9838C10.8461 11.1222 10.4118 11.1924 9.98306 11.1924C9.5546 11.1924 9.12033 11.1222 8.69232 10.9838C8.25439 10.8424 7.89932 10.686 7.63779 10.519C7.33429 10.3251 7.05963 10.1481 6.82144 9.99292C6.44043 9.74466 6.24298 9.66089 6.03882 9.66089C5.5188 9.66089 5.03296 9.74893 4.59457 9.92258C4.15482 10.0967 3.77411 10.3358 3.46298 10.6335C3.16574 10.9179 2.90085 11.2632 2.67563 11.6598C2.4585 12.042 2.28271 12.4407 2.15332 12.8449C2.02835 13.2357 1.92383 13.6631 1.84265 14.1154C1.76208 14.5637 1.70761 14.9889 1.6806 15.3796C1.65405 15.7615 1.64062 16.159 1.64062 16.5606C1.64062 17.6046 1.9725 18.4498 2.62695 19.0731C3.27332 19.6882 4.12842 20.0001 5.16861 20.0001H14.7987C15.8386 20.0001 16.6937 19.6882 17.3402 19.0731C17.9948 18.4502 18.3267 17.6048 18.3267 16.5604C18.3266 16.1575 18.313 15.76 18.2863 15.3791ZM16.5321 18.224C16.105 18.6305 15.538 18.8281 14.7986 18.8281H5.16861C4.42902 18.8281 3.862 18.6305 3.43506 18.2241C3.0162 17.8254 2.81265 17.2811 2.81265 16.5606C2.81265 16.1858 2.82501 15.8158 2.84973 15.4606C2.87384 15.1121 2.92313 14.7292 2.99622 14.3224C3.06839 13.9207 3.16025 13.5436 3.2695 13.2023C3.37433 12.875 3.5173 12.5509 3.69461 12.2387C3.86383 11.9412 4.05853 11.6859 4.27338 11.4802C4.47433 11.2878 4.72763 11.1303 5.02609 11.0122C5.30212 10.903 5.61234 10.8431 5.9491 10.8341C5.99014 10.856 6.06323 10.8976 6.18164 10.9748C6.42258 11.1318 6.70029 11.311 7.00729 11.507C7.35336 11.7277 7.79922 11.927 8.33191 12.0989C8.8765 12.275 9.43192 12.3644 9.98322 12.3644C10.5345 12.3644 11.0901 12.275 11.6344 12.0991C12.1675 11.9268 12.6132 11.7277 12.9597 11.5067C13.2739 11.3059 13.5439 11.132 13.7848 10.9748C13.9032 10.8978 13.9763 10.856 14.0173 10.8341C14.3542 10.8431 14.6645 10.903 14.9406 11.0122C15.239 11.1303 15.4922 11.2879 15.6932 11.4802C15.9081 11.6857 16.1028 11.941 16.272 12.2389C16.4494 12.5509 16.5926 12.8751 16.6972 13.2021C16.8066 13.5439 16.8987 13.9208 16.9707 14.3223C17.0436 14.7299 17.093 15.1128 17.1172 15.4607V15.4611C17.142 15.8149 17.1545 16.1848 17.1547 16.5606C17.1545 17.2813 16.951 17.8254 16.5321 18.224Z" fill="#CD7575"/>
</g>
<defs>
<clipPath id="clip0">
<rect width="20" height="20" fill="white"/>
</clipPath>
</defs>
</svg>
