<svg width="18" height="17" viewBox="0 0 18 17" fill="none" xmlns="http://www.w3.org/2000/svg">
<path d="M14.6235 3.93839C13.3166 2.61126 11.6142 1.83212 9.78613 1.71338V0.996094H10.5069C10.7783 0.996094 10.9984 0.773102 10.9984 0.498047C10.9984 0.222992 10.7783 0 10.5069 0H8.08244C7.81103 0 7.59099 0.222992 7.59099 0.498047C7.59099 0.773102 7.81103 0.996094 8.08244 0.996094H8.80323V1.71338C7.54981 1.79479 6.35555 2.18676 5.30729 2.85304L4.84045 2.37897C4.61323 2.14824 4.31099 2.02121 3.98935 2.02121C3.66772 2.02121 3.36547 2.14828 3.13829 2.37897L2.42828 3.10008C1.96091 3.57465 1.96091 4.34689 2.42828 4.82149L2.8983 5.29882C2.15644 6.5018 1.75916 7.89408 1.75916 9.34847C1.75916 11.3921 2.54285 13.3134 3.9659 14.7586C5.3892 16.204 7.28167 17 9.29468 17C11.3077 17 13.2002 16.204 14.6235 14.7586C16.0465 13.3134 16.8302 11.3921 16.8302 9.34847C16.8302 7.30489 16.0465 5.38352 14.6235 3.93839ZM3.12401 3.80372L3.83406 3.08264C3.89002 3.02583 3.95538 3.01733 3.98939 3.01733C4.02339 3.01733 4.08879 3.0258 4.14475 3.08264L4.50089 3.44429C4.3162 3.59945 4.13757 3.76411 3.96593 3.93842C3.79477 4.11224 3.63309 4.2931 3.4807 4.4801L3.12401 4.11789C3.03869 4.03126 3.03869 3.89031 3.12401 3.80372ZM9.29468 16.0039C5.68155 16.0039 2.74205 13.0183 2.74205 9.34847C2.74205 5.67866 5.68155 2.69304 9.29468 2.69304C12.9078 2.69304 15.8473 5.67863 15.8473 9.34847C15.8473 13.0183 12.9078 16.0039 9.29468 16.0039Z" fill="#676767"/>
<path d="M9.29473 3.62665C6.18738 3.62665 3.65939 6.19345 3.65939 9.34848C3.65939 12.5035 6.18738 15.0703 9.29473 15.0703C12.4021 15.0703 14.9301 12.5035 14.9301 9.34848C14.9301 6.19345 12.4021 3.62665 9.29473 3.62665ZM9.78618 14.0478V13.4657C9.78618 13.1906 9.56614 12.9676 9.29473 12.9676C9.02332 12.9676 8.80328 13.1906 8.80328 13.4657V14.0478C6.62923 13.8149 4.8969 12.055 4.66811 9.84652H5.23207C5.50348 9.84652 5.72352 9.62353 5.72352 9.34848C5.72352 9.07342 5.50348 8.85043 5.23207 8.85043H4.66815C4.8969 6.64199 6.62923 4.88203 8.80328 4.64911V5.23126C8.80328 5.50631 9.02332 5.7293 9.29473 5.7293C9.56614 5.7293 9.78618 5.50631 9.78618 5.23126V4.64911C11.9602 4.88203 13.6926 6.64199 13.9213 8.85043H13.3574C13.086 8.85043 12.8659 9.07342 12.8659 9.34848C12.8659 9.62353 13.086 9.84652 13.3574 9.84652H13.9213C13.6926 12.055 11.9602 13.8149 9.78618 14.0478Z" fill="#676767"/>
<path d="M10.507 9.06098H9.81362V7.04663C9.81362 6.77158 9.59358 6.54858 9.32217 6.54858C9.05076 6.54858 8.83072 6.77158 8.83072 7.04663V9.55903C8.83072 9.83409 9.05076 10.0571 9.32217 10.0571H10.507C10.7784 10.0571 10.9984 9.83409 10.9984 9.55903C10.9984 9.28397 10.7784 9.06098 10.507 9.06098Z" fill="#676767"/>
</svg>
