<svg width="8" height="15" viewBox="0 0 8 15" fill="none" xmlns="http://www.w3.org/2000/svg">
<path d="M0.231782 14.9477C0.425874 15.0519 0.666518 14.9961 0.795277 14.8185L7.82651 5.12122C7.92348 4.98751 7.93725 4.81071 7.86219 4.66355C7.78713 4.51642 7.6359 4.42379 7.47076 4.42379H5.60754L7.84821 0.664422C7.92916 0.528631 7.93092 0.359823 7.85281 0.222363C7.77477 0.0849021 7.62884 0 7.47076 0H2.19733C1.99551 0 1.81964 0.137461 1.77089 0.33328L0.0130819 7.39381C-0.019584 7.52506 0.0100057 7.66404 0.0932672 7.77059C0.176558 7.87717 0.304263 7.93943 0.439497 7.93943H2.44302L0.0278474 14.4068C-0.0490859 14.6127 0.0380427 14.8438 0.231782 14.9477ZM3.48792 7.65373C3.53834 7.51882 3.51938 7.36776 3.43726 7.24943C3.35514 7.1311 3.22026 7.06053 3.07624 7.06053H1.00179L2.54078 0.878904H6.69726L4.45658 4.63827C4.37564 4.77406 4.37388 4.94287 4.45198 5.08033C4.53006 5.21779 4.67599 5.30269 4.83407 5.30269H6.60934L1.98329 11.6827L3.48792 7.65373Z" fill="#676767"/>
</svg>
