<svg version="1.0" xmlns="http://www.w3.org/2000/svg"
 width="1033.000000pt" height="987.000000pt" viewBox="0 0 1033.000000 987.000000"
 preserveAspectRatio="xMidYMid meet">
<g transform="translate(0.000000,987.000000) scale(0.100000,-0.100000)"
fill="#3B579D" stroke="none">
<path d="M4790 9860 c0 -6 -48 -10 -124 -10 -97 0 -128 -3 -140 -15 -11 -11
-37 -15 -100 -15 -47 0 -86 -4 -86 -9 0 -5 -30 -12 -67 -14 -107 -8 -197 -24
-201 -36 -2 -6 -26 -11 -52 -11 -27 0 -52 -4 -55 -10 -3 -5 -26 -10 -51 -10
-30 0 -46 -5 -50 -15 -4 -10 -20 -15 -49 -15 -24 0 -47 -4 -50 -10 -3 -5 -22
-10 -41 -10 -19 0 -34 -4 -34 -9 0 -4 -21 -11 -47 -14 -26 -3 -49 -10 -51 -16
-2 -6 -19 -11 -38 -11 -19 0 -34 -4 -34 -10 0 -5 -11 -10 -25 -10 -25 0 -98
-30 -103 -42 -2 -5 -19 -8 -37 -8 -19 0 -37 -4 -40 -10 -3 -5 -17 -10 -30 -10
-13 0 -30 -7 -39 -15 -8 -8 -24 -15 -35 -15 -12 0 -21 -4 -21 -10 0 -5 -13
-10 -29 -10 -17 0 -32 -4 -36 -9 -3 -5 -19 -12 -35 -16 -17 -4 -30 -11 -30
-16 0 -5 -9 -9 -19 -9 -11 0 -23 -4 -26 -10 -3 -5 -15 -10 -26 -10 -11 0 -22
-7 -25 -15 -4 -8 -17 -15 -30 -15 -13 0 -24 -4 -24 -10 0 -5 -11 -10 -25 -10
-14 0 -25 -4 -25 -10 0 -5 -9 -10 -20 -10 -11 0 -23 -7 -26 -15 -4 -8 -17 -15
-30 -15 -13 0 -24 -4 -24 -10 0 -5 -9 -10 -20 -10 -11 0 -23 -7 -26 -15 -4 -8
-11 -15 -17 -15 -23 0 -107 -45 -107 -57 0 -7 -11 -13 -25 -13 -14 0 -25 -4
-25 -10 0 -5 -6 -10 -14 -10 -16 0 -73 -29 -93 -47 -7 -7 -31 -22 -53 -34 -22
-13 -40 -26 -40 -31 0 -4 -8 -8 -19 -8 -10 0 -30 -11 -45 -25 -15 -14 -34 -25
-42 -25 -7 0 -14 -4 -14 -10 0 -5 -7 -10 -15 -10 -8 0 -15 -7 -15 -15 0 -9 -9
-15 -25 -15 -14 0 -25 -4 -25 -8 0 -5 -11 -15 -25 -22 -14 -7 -25 -19 -25 -27
0 -7 -9 -13 -19 -13 -11 0 -36 -16 -55 -35 -20 -19 -41 -35 -46 -35 -6 0 -10
-3 -10 -8 0 -4 -16 -16 -35 -26 -19 -11 -35 -23 -35 -28 0 -4 -5 -8 -11 -8
-14 0 -39 -25 -39 -39 0 -6 -7 -11 -16 -11 -16 0 -27 -9 -106 -82 -22 -21 -42
-38 -44 -38 -2 0 -36 -31 -74 -70 -38 -38 -74 -70 -78 -70 -5 0 -15 -11 -22
-25 -7 -14 -17 -25 -22 -25 -13 0 -38 -26 -38 -39 0 -6 -5 -11 -10 -11 -17 0
-190 -177 -190 -194 0 -9 -6 -16 -13 -16 -8 0 -20 -11 -27 -25 -7 -14 -19 -25
-25 -25 -6 0 -18 -11 -25 -25 -7 -14 -17 -25 -21 -25 -5 0 -16 -16 -25 -35 -9
-19 -21 -35 -27 -35 -14 0 -36 -32 -37 -52 0 -10 -7 -18 -15 -18 -8 0 -15 -4
-15 -9 0 -5 -11 -19 -25 -32 -13 -13 -25 -30 -25 -37 0 -7 -16 -28 -35 -46
-19 -19 -35 -39 -35 -45 0 -7 -11 -22 -25 -35 -14 -13 -25 -30 -25 -39 0 -8
-7 -17 -15 -21 -8 -3 -15 -15 -15 -26 0 -11 -4 -20 -10 -20 -5 0 -10 -6 -10
-14 0 -8 -7 -16 -15 -20 -8 -3 -15 -12 -15 -21 0 -8 -4 -15 -10 -15 -5 0 -10
-7 -10 -15 0 -8 -4 -15 -10 -15 -5 0 -12 -11 -16 -25 -3 -14 -10 -25 -15 -25
-5 0 -9 -9 -9 -19 0 -10 -7 -21 -15 -25 -8 -3 -15 -15 -15 -26 0 -11 -4 -20
-10 -20 -5 0 -10 -7 -10 -15 0 -8 -4 -15 -9 -15 -11 0 -41 -56 -41 -75 0 -7
-7 -15 -15 -19 -8 -3 -15 -15 -15 -26 0 -11 -4 -20 -10 -20 -5 0 -10 -9 -10
-19 0 -11 -4 -23 -10 -26 -5 -3 -17 -23 -26 -43 -8 -20 -20 -44 -25 -52 -5 -8
-12 -23 -15 -32 -4 -10 -10 -18 -15 -18 -5 0 -9 -16 -9 -35 0 -24 -5 -35 -15
-35 -9 0 -15 -9 -15 -25 0 -14 -4 -25 -10 -25 -5 0 -10 -9 -10 -21 0 -11 -7
-27 -15 -35 -8 -9 -15 -26 -15 -40 0 -13 -4 -24 -10 -24 -5 0 -10 -16 -10 -35
0 -24 -5 -35 -15 -35 -9 0 -15 -9 -15 -25 0 -14 -4 -25 -10 -25 -5 0 -10 -15
-10 -34 0 -21 -6 -36 -15 -40 -9 -3 -15 -18 -15 -36 0 -16 -4 -30 -10 -30 -5
0 -10 -15 -10 -34 0 -18 -7 -39 -15 -46 -9 -7 -15 -29 -15 -51 0 -22 -4 -39
-10 -39 -5 0 -10 -15 -10 -34 0 -21 -6 -36 -15 -40 -10 -3 -15 -19 -15 -45 0
-22 -4 -43 -10 -46 -5 -3 -10 -24 -10 -46 0 -23 -7 -47 -15 -55 -9 -10 -15
-34 -15 -65 0 -27 -4 -49 -10 -49 -5 0 -10 -25 -10 -56 0 -36 -5 -61 -15 -70
-10 -11 -15 -36 -15 -84 0 -38 -4 -72 -10 -75 -5 -3 -10 -46 -10 -95 0 -73 -3
-91 -17 -98 -15 -9 -16 -54 -16 -522 0 -467 1 -514 16 -525 14 -10 17 -30 17
-104 0 -54 4 -91 10 -91 6 0 10 -30 10 -69 0 -49 5 -74 15 -85 10 -9 15 -34
15 -70 0 -31 5 -56 10 -56 6 0 10 -22 10 -49 0 -31 6 -55 15 -65 8 -8 15 -32
15 -55 0 -22 4 -43 10 -46 5 -3 10 -24 10 -46 0 -26 5 -42 15 -45 9 -4 15 -19
15 -39 0 -19 5 -37 10 -40 6 -3 10 -21 10 -40 0 -18 7 -40 15 -49 8 -8 15 -28
15 -45 0 -17 5 -31 10 -31 6 0 10 -14 10 -30 0 -18 6 -33 15 -36 9 -4 15 -19
15 -40 0 -19 5 -34 10 -34 6 0 10 -11 10 -24 0 -13 7 -26 15 -30 9 -3 15 -18
15 -35 0 -16 4 -33 10 -36 5 -3 10 -17 10 -29 0 -13 7 -29 15 -36 8 -7 15 -21
15 -31 0 -11 5 -19 10 -19 6 0 10 -11 10 -25 0 -16 6 -25 15 -25 10 0 15 -11
15 -35 0 -19 4 -35 9 -35 5 0 12 -11 15 -25 4 -14 11 -25 16 -25 6 0 10 -11
10 -25 0 -14 5 -25 10 -25 6 0 10 -9 10 -20 0 -11 7 -23 15 -26 8 -4 15 -15
15 -25 0 -10 5 -19 10 -19 6 0 10 -9 10 -20 0 -11 7 -23 15 -26 8 -4 15 -12
15 -19 0 -18 26 -67 50 -92 11 -12 20 -29 20 -38 0 -9 7 -18 15 -21 8 -4 15
-12 15 -19 0 -17 33 -75 43 -75 4 0 7 -7 7 -15 0 -8 5 -15 10 -15 6 0 10 -7
10 -15 0 -9 11 -26 25 -39 14 -13 25 -31 25 -40 0 -9 7 -19 15 -22 8 -4 15
-13 15 -21 0 -9 11 -26 25 -39 14 -13 25 -28 25 -35 0 -6 11 -22 25 -35 14
-13 25 -28 25 -34 0 -5 5 -10 10 -10 6 0 10 -9 10 -20 0 -11 7 -20 15 -20 8 0
15 -5 15 -11 0 -14 25 -39 39 -39 6 0 11 -8 11 -17 1 -22 23 -53 39 -53 6 0
11 -7 11 -15 0 -8 5 -15 10 -15 6 0 10 -7 10 -15 0 -9 7 -18 15 -21 8 -4 15
-10 15 -16 0 -13 26 -38 39 -38 6 0 11 -5 11 -11 0 -14 25 -39 39 -39 6 0 11
-9 11 -20 0 -11 5 -20 10 -20 6 0 10 -7 10 -15 0 -8 6 -15 13 -15 8 0 20 -11
27 -25 7 -14 17 -25 22 -25 4 0 39 -31 77 -70 38 -38 74 -70 80 -70 6 0 11 -5
11 -11 0 -13 25 -39 38 -39 5 0 15 -11 22 -25 7 -14 17 -25 22 -25 5 0 28 -20
52 -45 25 -25 49 -45 55 -45 6 0 11 -7 11 -15 0 -8 4 -15 8 -15 5 0 30 -20 56
-45 27 -25 57 -45 67 -45 10 0 19 -5 19 -11 0 -11 25 -39 35 -39 3 0 18 -11
33 -25 15 -14 32 -25 39 -25 7 0 13 -4 13 -10 0 -5 7 -10 15 -10 8 0 15 -6 15
-13 0 -8 11 -20 25 -27 14 -7 25 -17 25 -22 0 -4 8 -8 19 -8 10 0 27 -11 37
-25 10 -14 24 -25 31 -25 7 0 13 -4 13 -10 0 -5 11 -12 25 -16 14 -3 25 -10
25 -15 0 -5 7 -9 15 -9 8 0 15 -4 15 -10 0 -5 7 -10 14 -10 8 0 27 -11 42 -25
15 -14 33 -25 40 -25 7 0 25 -11 40 -25 15 -14 33 -25 40 -25 8 0 14 -4 14
-10 0 -5 7 -10 15 -10 8 0 15 -4 15 -10 0 -5 11 -12 25 -16 14 -3 25 -10 25
-15 0 -5 11 -9 25 -9 14 0 25 -4 25 -10 0 -5 11 -12 25 -16 14 -3 25 -10 25
-15 0 -5 7 -9 15 -9 8 0 15 -4 15 -10 0 -5 9 -10 20 -10 11 0 20 -4 20 -8 0
-9 70 -42 88 -42 7 0 12 -4 12 -10 0 -5 11 -10 24 -10 13 0 26 -7 30 -15 3 -8
15 -15 26 -15 11 0 20 -4 20 -10 0 -5 11 -10 24 -10 13 0 26 -7 30 -15 3 -8
14 -15 25 -15 11 0 23 -4 26 -10 3 -5 15 -10 26 -10 10 0 19 -4 19 -10 0 -5 9
-10 21 -10 11 0 27 -7 35 -15 9 -8 24 -15 34 -15 10 0 22 -5 25 -10 3 -6 17
-10 31 -10 14 0 31 -6 38 -13 8 -7 33 -19 57 -26 24 -7 52 -17 61 -22 10 -5
31 -9 48 -9 20 0 30 -5 30 -15 0 -9 9 -15 24 -15 14 0 28 -4 31 -10 3 -5 21
-10 40 -10 18 0 35 -3 37 -7 5 -13 103 -43 137 -43 17 0 31 -4 31 -10 0 -5 15
-10 33 -10 17 0 41 -7 51 -15 11 -8 34 -15 52 -15 18 0 36 -4 39 -10 3 -5 26
-10 51 -10 24 0 44 -4 44 -10 0 -5 23 -10 51 -10 31 0 56 -6 65 -15 10 -9 34
-15 64 -15 27 0 52 -4 55 -10 3 -5 37 -10 75 -10 45 0 70 -4 72 -12 3 -8 34
-14 89 -16 46 -2 90 -9 98 -16 20 -16 1269 -16 1279 0 4 7 47 13 101 16 61 3
96 9 99 16 2 7 26 12 62 12 32 0 62 5 65 10 3 6 33 10 66 10 46 0 59 3 59 15
0 12 13 15 59 15 33 0 63 5 66 10 3 6 26 10 50 10 24 0 47 4 50 10 3 5 21 10
40 10 18 0 40 7 49 15 8 8 31 15 50 15 20 0 36 5 36 10 0 6 15 10 34 10 19 0
37 4 40 9 3 5 26 12 51 15 25 4 45 11 45 17 0 5 11 9 24 9 14 0 28 4 31 10 3
5 20 10 36 10 17 0 32 6 35 15 4 9 19 15 35 15 16 0 38 5 49 10 48 24 57 28
88 35 18 3 32 11 32 16 0 5 11 9 25 9 14 0 25 5 25 10 0 6 9 10 21 10 11 0 33
6 47 14 15 7 38 18 52 24 14 6 44 18 68 28 23 10 42 21 42 26 0 4 11 8 25 8
14 0 25 5 25 10 0 6 9 10 20 10 11 0 23 7 26 15 4 8 17 15 30 15 13 0 24 5 24
10 0 6 5 10 12 10 18 0 88 33 88 42 0 4 9 8 20 8 11 0 20 5 20 10 0 6 7 10 15
10 8 0 15 4 15 9 0 5 11 12 25 15 14 4 25 11 25 16 0 6 8 10 19 10 10 0 30 11
45 25 15 14 36 25 47 25 10 0 19 5 19 10 0 6 6 10 14 10 7 0 25 11 40 25 15
14 33 25 40 25 7 0 25 11 40 25 15 14 34 25 42 25 7 0 14 5 14 10 0 6 5 10 11
10 7 0 22 11 35 25 13 14 30 25 39 25 8 0 15 5 15 10 0 6 5 10 10 10 6 0 21
11 34 25 13 14 28 25 33 25 6 0 22 11 37 25 15 14 31 25 37 25 5 0 9 5 9 10 0
6 6 10 13 10 7 0 24 11 39 25 15 14 30 25 33 25 10 0 35 28 35 39 0 6 7 11 15
11 8 0 15 5 15 10 0 6 6 10 13 10 8 0 38 22 67 50 29 27 55 50 58 50 2 0 23
20 48 45 24 25 47 45 52 45 5 0 15 11 22 25 7 14 17 25 22 25 13 0 38 26 38
39 0 6 5 11 10 11 15 0 213 200 229 233 8 15 18 27 23 27 13 0 38 26 38 39 0
6 7 11 15 11 8 0 15 7 15 15 0 8 5 15 10 15 6 0 10 9 10 20 0 11 5 20 11 20
14 0 39 25 39 39 0 6 5 11 11 11 16 0 38 31 39 53 0 9 5 17 11 17 13 0 39 25
39 38 0 6 7 12 15 16 8 3 15 12 15 21 0 8 5 15 10 15 6 0 10 7 10 15 0 8 4 15
10 15 5 0 16 15 25 34 9 19 23 37 31 40 8 3 14 13 14 23 0 10 11 27 25 37 14
10 25 25 25 33 0 8 11 26 25 41 14 15 25 32 25 39 0 7 5 13 10 13 6 0 10 11
10 25 0 16 6 25 15 25 8 0 15 7 15 15 0 8 5 15 10 15 6 0 10 9 10 19 0 10 7
21 15 25 8 3 15 15 15 26 0 11 5 20 10 20 6 0 10 9 10 19 0 10 7 21 15 25 8 3
15 15 15 26 0 11 5 20 10 20 6 0 10 7 10 15 0 8 4 15 10 15 5 0 12 11 16 25 3
14 10 25 15 25 5 0 9 8 9 19 0 10 7 24 15 31 8 7 15 23 15 36 0 13 5 24 10 24
6 0 10 11 10 24 0 13 7 26 15 30 8 3 15 15 15 26 0 11 5 20 10 20 6 0 10 11
10 24 0 13 7 26 15 30 8 3 15 15 15 26 0 11 5 20 10 20 6 0 10 16 10 35 0 24
5 35 15 35 9 0 15 9 15 25 0 14 5 25 10 25 6 0 10 15 10 34 0 21 6 36 15 40 9
3 15 18 15 36 0 16 5 30 10 30 6 0 10 16 10 35 0 24 5 35 15 35 10 0 15 11 15
35 0 19 5 35 10 35 6 0 10 15 10 34 0 21 6 36 15 40 9 3 15 18 15 35 0 16 5
33 10 36 6 3 10 26 10 50 0 29 5 45 15 49 10 3 15 19 15 45 0 22 5 43 10 46 6
3 10 26 10 50 0 29 5 45 15 49 11 4 15 21 15 61 0 30 5 55 10 55 6 0 10 25 10
56 0 36 5 61 15 70 11 11 15 37 15 90 0 43 4 74 10 74 6 0 10 38 10 95 0 57 4
95 10 95 7 0 10 173 10 500 0 327 -3 500 -10 500 -6 0 -10 38 -10 95 0 57 -4
95 -10 95 -6 0 -10 31 -10 74 0 53 -4 77 -15 86 -10 8 -15 31 -15 71 0 33 -4
59 -10 59 -5 0 -10 25 -10 55 0 40 -4 57 -15 61 -10 4 -15 20 -15 50 0 24 -4
44 -10 44 -5 0 -10 20 -10 45 0 31 -5 47 -15 51 -10 4 -15 20 -15 50 0 24 -4
44 -10 44 -5 0 -10 15 -10 34 0 21 -6 36 -15 40 -9 3 -15 19 -15 41 0 19 -4
35 -10 35 -5 0 -10 14 -10 30 0 18 -6 33 -15 36 -9 4 -15 19 -15 40 0 19 -4
34 -10 34 -5 0 -10 14 -10 30 0 18 -6 33 -15 36 -9 4 -15 19 -15 40 0 19 -4
34 -10 34 -5 0 -10 9 -10 20 0 11 -7 23 -15 26 -9 4 -15 19 -15 40 0 19 -4 34
-10 34 -5 0 -10 9 -10 20 0 11 -7 23 -15 26 -8 4 -15 17 -15 30 0 13 -4 24
-10 24 -5 0 -10 9 -10 20 0 11 -7 23 -15 26 -8 4 -15 15 -15 25 0 10 -4 19
-10 19 -5 0 -10 14 -10 30 0 18 -6 33 -15 36 -8 4 -15 17 -15 30 0 13 -4 24
-10 24 -5 0 -10 6 -10 13 0 8 -11 27 -25 43 -14 16 -25 37 -25 47 0 9 -7 17
-15 17 -9 0 -15 9 -15 25 0 14 -4 25 -10 25 -5 0 -10 9 -10 20 0 11 -7 23 -15
26 -8 4 -15 15 -15 25 0 10 -4 19 -10 19 -5 0 -10 7 -10 15 0 8 -7 15 -15 15
-9 0 -15 9 -15 21 0 11 -6 27 -12 34 -30 33 -38 45 -38 55 0 5 -4 10 -10 10
-5 0 -10 7 -10 15 0 9 -11 26 -25 39 -14 13 -25 30 -25 38 0 8 -11 24 -25 34
-14 10 -25 23 -25 29 0 6 -11 22 -25 37 -14 15 -25 33 -25 40 0 7 -12 24 -25
37 -14 13 -25 27 -25 32 0 5 -7 9 -15 9 -8 0 -15 7 -15 15 0 9 -16 32 -35 52
-19 20 -35 40 -35 45 0 4 -7 8 -15 8 -8 0 -15 7 -15 16 0 9 -16 31 -35 50 -19
18 -35 37 -35 43 0 6 -5 11 -11 11 -13 0 -39 25 -39 38 0 14 -155 172 -169
172 -6 0 -11 5 -11 11 0 13 -25 39 -38 39 -5 0 -15 11 -22 25 -7 14 -17 25
-22 25 -5 0 -28 20 -52 45 -25 25 -49 45 -55 45 -6 0 -11 5 -11 11 0 10 -24
39 -33 39 -2 0 -25 20 -51 44 -26 25 -56 48 -67 51 -10 4 -19 11 -19 16 0 5
-4 9 -8 9 -5 0 -30 20 -56 44 -26 25 -56 48 -67 51 -10 4 -19 11 -19 16 0 5
-5 9 -10 9 -6 0 -23 11 -38 25 -15 14 -32 25 -39 25 -7 0 -13 5 -13 10 0 6 -4
10 -9 10 -6 0 -22 11 -37 25 -15 14 -33 25 -40 25 -8 0 -14 5 -14 10 0 6 -5
10 -10 10 -6 0 -21 11 -34 25 -13 14 -29 25 -35 25 -7 0 -24 11 -39 25 -15 14
-34 25 -44 25 -9 0 -18 4 -20 9 -4 11 -85 61 -98 61 -6 0 -21 9 -33 20 -12 12
-32 23 -44 26 -13 4 -23 10 -23 15 0 5 -11 9 -25 9 -14 0 -25 6 -25 13 0 12
-84 57 -107 57 -6 0 -13 7 -17 15 -3 8 -15 15 -26 15 -11 0 -20 5 -20 10 0 6
-11 10 -25 10 -14 0 -25 4 -25 8 0 9 -70 42 -88 42 -7 0 -12 5 -12 10 0 6 -11
10 -24 10 -13 0 -26 7 -30 15 -3 8 -12 15 -21 15 -8 0 -23 4 -33 9 -40 21 -91
41 -106 41 -9 0 -16 5 -16 10 0 6 -11 10 -25 10 -14 0 -25 5 -25 10 0 6 -15
10 -34 10 -21 0 -36 6 -40 15 -3 8 -14 15 -25 15 -11 0 -23 5 -26 10 -3 6 -22
10 -41 10 -19 0 -34 4 -34 10 0 5 -16 12 -35 16 -19 3 -38 10 -41 15 -3 5 -16
9 -30 9 -13 0 -24 5 -24 10 0 6 -20 10 -44 10 -30 0 -46 5 -50 15 -3 9 -19 15
-41 15 -19 0 -35 5 -35 10 0 6 -18 10 -40 10 -22 0 -40 5 -40 10 0 6 -18 10
-41 10 -23 0 -47 7 -55 15 -9 8 -33 15 -54 15 -21 0 -42 5 -45 10 -3 6 -32 10
-65 10 -42 0 -59 4 -64 15 -4 11 -21 15 -60 15 -30 0 -58 5 -61 10 -3 6 -33
10 -65 10 -32 0 -62 5 -65 10 -3 6 -48 10 -100 10 -73 0 -94 3 -99 15 -4 12
-28 15 -125 15 -69 0 -122 4 -126 10 -4 6 -143 10 -386 10 -246 0 -379 -4
-379 -10z m1898 -1798 c10 -7 12 -125 10 -558 l-3 -549 -420 -6 c-468 -7 -475
-8 -532 -74 -61 -70 -63 -89 -63 -502 l0 -373 508 -2 507 -3 -1 -55 c-2 -64
-16 -241 -39 -465 -8 -88 -20 -209 -25 -270 -17 -187 -21 -229 -26 -252 l-4
-23 -458 -2 -457 -3 -2 -1580 c-3 -1471 -4 -1581 -20 -1592 -26 -20 -1296 -19
-1312 0 -8 10 -12 444 -13 1583 l-3 1569 -335 3 c-301 2 -336 4 -347 19 -18
24 -19 1043 -1 1061 9 9 100 12 350 12 l338 0 1 508 c0 279 4 536 9 572 17
123 37 213 59 265 36 85 96 205 103 205 4 0 8 6 8 13 0 6 17 32 38 57 219 266
514 394 1012 439 122 11 1101 13 1118 3z"/>
</g>
</svg>
