<svg width="74" height="16" viewBox="0 0 74 16" fill="none" xmlns="http://www.w3.org/2000/svg">
<g clip-path="url(#clip0)">
<path d="M15.9732 0.224727C15.917 0.0887387 15.7844 3.40909e-05 15.6372 0C1.52813 0 0.000854492 5.84874 0.000854492 8.36363C0.000854492 11.6262 2.48523 13.8182 6.18267 13.8182C10.8525 13.8182 11.8307 9.37453 12.3557 6.9869C12.8662 4.55649 14.0995 2.33721 15.8939 0.620353C15.9978 0.51658 16.0291 0.360512 15.9732 0.224727Z" fill="#4CAF50"/>
<path d="M0.363785 16C0.162956 16 0.000137329 15.8372 0.000137329 15.6363C0.000137329 13.4741 3.74922 6.53667 9.65977 3.67269C9.84052 3.58514 10.058 3.66066 10.1456 3.84141C10.2331 4.02216 10.1576 4.23966 9.97688 4.32724C4.00814 7.21961 0.727399 13.9367 0.727399 15.6364C0.727399 15.8372 0.564615 16 0.363785 16Z" fill="#388E3C"/>
</g>
<path d="M24.587 4L21.487 11H20.757L17.657 4H18.457L21.137 10.08L23.837 4H24.587ZM29.6325 8.59H25.2325C25.2725 9.13667 25.4825 9.58 25.8625 9.92C26.2425 10.2533 26.7225 10.42 27.3025 10.42C27.6292 10.42 27.9292 10.3633 28.2025 10.25C28.4758 10.13 28.7125 9.95667 28.9125 9.73L29.3125 10.19C29.0792 10.47 28.7858 10.6833 28.4325 10.83C28.0858 10.9767 27.7025 11.05 27.2825 11.05C26.7425 11.05 26.2625 10.9367 25.8425 10.71C25.4292 10.4767 25.1058 10.1567 24.8725 9.75C24.6392 9.34333 24.5225 8.88333 24.5225 8.37C24.5225 7.85667 24.6325 7.39667 24.8525 6.99C25.0792 6.58333 25.3858 6.26667 25.7725 6.04C26.1658 5.81333 26.6058 5.7 27.0925 5.7C27.5792 5.7 28.0158 5.81333 28.4025 6.04C28.7892 6.26667 29.0925 6.58333 29.3125 6.99C29.5325 7.39 29.6425 7.85 29.6425 8.37L29.6325 8.59ZM27.0925 6.31C26.5858 6.31 26.1592 6.47333 25.8125 6.8C25.4725 7.12 25.2792 7.54 25.2325 8.06H28.9625C28.9158 7.54 28.7192 7.12 28.3725 6.8C28.0325 6.47333 27.6058 6.31 27.0925 6.31ZM27.8125 3.68H28.7625L27.1425 4.92H26.4425L27.8125 3.68ZM35.9577 5.74V10.36C35.9577 11.2533 35.7377 11.9133 35.2977 12.34C34.8643 12.7733 34.2077 12.99 33.3277 12.99C32.841 12.99 32.3777 12.9167 31.9377 12.77C31.5043 12.63 31.151 12.4333 30.8777 12.18L31.2377 11.64C31.491 11.8667 31.7977 12.0433 32.1577 12.17C32.5243 12.2967 32.9077 12.36 33.3077 12.36C33.9743 12.36 34.4643 12.2033 34.7777 11.89C35.091 11.5833 35.2477 11.1033 35.2477 10.45V9.78C35.0277 10.1133 34.7377 10.3667 34.3777 10.54C34.0243 10.7133 33.631 10.8 33.1977 10.8C32.7043 10.8 32.2543 10.6933 31.8477 10.48C31.4477 10.26 31.131 9.95667 30.8977 9.57C30.671 9.17667 30.5577 8.73333 30.5577 8.24C30.5577 7.74667 30.671 7.30667 30.8977 6.92C31.131 6.53333 31.4477 6.23333 31.8477 6.02C32.2477 5.80667 32.6977 5.7 33.1977 5.7C33.6443 5.7 34.0477 5.79 34.4077 5.97C34.7677 6.15 35.0577 6.41 35.2777 6.75V5.74H35.9577ZM33.2677 10.17C33.6477 10.17 33.991 10.09 34.2977 9.93C34.6043 9.76333 34.841 9.53333 35.0077 9.24C35.181 8.94667 35.2677 8.61333 35.2677 8.24C35.2677 7.86667 35.181 7.53667 35.0077 7.25C34.841 6.95667 34.6043 6.73 34.2977 6.57C33.9977 6.40333 33.6543 6.32 33.2677 6.32C32.8877 6.32 32.5443 6.4 32.2377 6.56C31.9377 6.72 31.701 6.94667 31.5277 7.24C31.361 7.53333 31.2777 7.86667 31.2777 8.24C31.2777 8.61333 31.361 8.94667 31.5277 9.24C31.701 9.53333 31.9377 9.76333 32.2377 9.93C32.5443 10.09 32.8877 10.17 33.2677 10.17ZM42.5231 8.59H38.1231C38.1631 9.13667 38.3731 9.58 38.7531 9.92C39.1331 10.2533 39.6131 10.42 40.1931 10.42C40.5198 10.42 40.8198 10.3633 41.0931 10.25C41.3665 10.13 41.6031 9.95667 41.8031 9.73L42.2031 10.19C41.9698 10.47 41.6765 10.6833 41.3231 10.83C40.9765 10.9767 40.5931 11.05 40.1731 11.05C39.6331 11.05 39.1531 10.9367 38.7331 10.71C38.3198 10.4767 37.9965 10.1567 37.7631 9.75C37.5298 9.34333 37.4131 8.88333 37.4131 8.37C37.4131 7.85667 37.5231 7.39667 37.7431 6.99C37.9698 6.58333 38.2765 6.26667 38.6631 6.04C39.0565 5.81333 39.4965 5.7 39.9831 5.7C40.4698 5.7 40.9065 5.81333 41.2931 6.04C41.6798 6.26667 41.9831 6.58333 42.2031 6.99C42.4231 7.39 42.5331 7.85 42.5331 8.37L42.5231 8.59ZM39.9831 6.31C39.4765 6.31 39.0498 6.47333 38.7031 6.8C38.3631 7.12 38.1698 7.54 38.1231 8.06H41.8531C41.8065 7.54 41.6098 7.12 41.2631 6.8C40.9231 6.47333 40.4965 6.31 39.9831 6.31ZM40.7031 3.68H41.6531L40.0331 4.92H39.3331L40.7031 3.68ZM46.7483 10.68C46.6149 10.8 46.4483 10.8933 46.2483 10.96C46.0549 11.02 45.8516 11.05 45.6383 11.05C45.1449 11.05 44.7649 10.9167 44.4983 10.65C44.2316 10.3833 44.0983 10.0067 44.0983 9.52V6.34H43.1583V5.74H44.0983V4.59H44.8083V5.74H46.4083V6.34H44.8083V9.48C44.8083 9.79333 44.8849 10.0333 45.0383 10.2C45.1983 10.36 45.4249 10.44 45.7183 10.44C45.8649 10.44 46.0049 10.4167 46.1383 10.37C46.2783 10.3233 46.3983 10.2567 46.4983 10.17L46.7483 10.68ZM49.8808 5.7C50.5674 5.7 51.0941 5.87333 51.4608 6.22C51.8274 6.56 52.0108 7.06667 52.0108 7.74V11H51.3308V10.18C51.1708 10.4533 50.9341 10.6667 50.6208 10.82C50.3141 10.9733 49.9474 11.05 49.5208 11.05C48.9341 11.05 48.4674 10.91 48.1208 10.63C47.7741 10.35 47.6008 9.98 47.6008 9.52C47.6008 9.07333 47.7608 8.71333 48.0808 8.44C48.4074 8.16667 48.9241 8.03 49.6308 8.03H51.3008V7.71C51.3008 7.25667 51.1741 6.91333 50.9208 6.68C50.6674 6.44 50.2974 6.32 49.8108 6.32C49.4774 6.32 49.1574 6.37667 48.8508 6.49C48.5441 6.59667 48.2808 6.74667 48.0608 6.94L47.7408 6.41C48.0074 6.18333 48.3274 6.01 48.7008 5.89C49.0741 5.76333 49.4674 5.7 49.8808 5.7ZM49.6308 10.49C50.0308 10.49 50.3741 10.4 50.6608 10.22C50.9474 10.0333 51.1608 9.76667 51.3008 9.42V8.56H49.6508C48.7508 8.56 48.3008 8.87333 48.3008 9.5C48.3008 9.80667 48.4174 10.05 48.6508 10.23C48.8841 10.4033 49.2108 10.49 49.6308 10.49ZM54.6192 6.77C54.7859 6.41667 55.0326 6.15 55.3592 5.97C55.6926 5.79 56.1026 5.7 56.5892 5.7V6.39L56.4192 6.38C55.8659 6.38 55.4326 6.55 55.1192 6.89C54.8059 7.23 54.6492 7.70667 54.6492 8.32V11H53.9392V5.74H54.6192V6.77ZM57.8748 5.74H58.5848V11H57.8748V5.74ZM58.2348 4.59C58.0881 4.59 57.9648 4.54 57.8648 4.44C57.7648 4.34 57.7148 4.22 57.7148 4.08C57.7148 3.94667 57.7648 3.83 57.8648 3.73C57.9648 3.63 58.0881 3.58 58.2348 3.58C58.3814 3.58 58.5048 3.63 58.6048 3.73C58.7048 3.82333 58.7548 3.93667 58.7548 4.07C58.7548 4.21667 58.7048 4.34 58.6048 4.44C58.5048 4.54 58.3814 4.59 58.2348 4.59ZM65.1403 8.59H60.7403C60.7803 9.13667 60.9903 9.58 61.3703 9.92C61.7503 10.2533 62.2303 10.42 62.8103 10.42C63.137 10.42 63.437 10.3633 63.7103 10.25C63.9836 10.13 64.2203 9.95667 64.4203 9.73L64.8203 10.19C64.587 10.47 64.2936 10.6833 63.9403 10.83C63.5936 10.9767 63.2103 11.05 62.7903 11.05C62.2503 11.05 61.7703 10.9367 61.3503 10.71C60.937 10.4767 60.6136 10.1567 60.3803 9.75C60.147 9.34333 60.0303 8.88333 60.0303 8.37C60.0303 7.85667 60.1403 7.39667 60.3603 6.99C60.587 6.58333 60.8936 6.26667 61.2803 6.04C61.6736 5.81333 62.1136 5.7 62.6003 5.7C63.087 5.7 63.5236 5.81333 63.9103 6.04C64.297 6.26667 64.6003 6.58333 64.8203 6.99C65.0403 7.39 65.1503 7.85 65.1503 8.37L65.1403 8.59ZM62.6003 6.31C62.0936 6.31 61.667 6.47333 61.3203 6.8C60.9803 7.12 60.787 7.54 60.7403 8.06H64.4703C64.4236 7.54 64.227 7.12 63.8803 6.8C63.5403 6.47333 63.1136 6.31 62.6003 6.31ZM69.2755 5.7C69.9355 5.7 70.4588 5.89333 70.8455 6.28C71.2388 6.66 71.4355 7.21667 71.4355 7.95V11H70.7255V8.02C70.7255 7.47333 70.5888 7.05667 70.3155 6.77C70.0421 6.48333 69.6521 6.34 69.1455 6.34C68.5788 6.34 68.1288 6.51 67.7955 6.85C67.4688 7.18333 67.3055 7.64667 67.3055 8.24V11H66.5955V5.74H67.2755V6.71C67.4688 6.39 67.7355 6.14333 68.0755 5.97C68.4221 5.79 68.8221 5.7 69.2755 5.7Z" fill="#469E49"/>
<defs>
<clipPath id="clip0">
<rect width="16" height="16" fill="white"/>
</clipPath>
</defs>
</svg>
