<svg width="35" height="35" viewBox="0 0 35 35" fill="none" xmlns="http://www.w3.org/2000/svg">
<g clip-path="url(#clip0)">
<path d="M35 17.902C35 16.7124 34.9016 15.5164 34.6917 14.3461H17.851V21.085H27.4948C27.0947 23.2584 25.8088 25.1811 23.926 26.4028V30.7754H29.6795C33.0581 27.7275 35 23.2263 35 17.902Z" fill="#4285F4"/>
<path d="M17.851 34.9999C22.6663 34.9999 26.7272 33.4502 29.686 30.7752L23.9325 26.4026C22.3317 27.47 20.2652 28.0745 17.8575 28.0745C13.1996 28.0745 9.25022 24.9944 7.83317 20.8533H1.89597V25.3609C4.92689 31.2703 11.1003 34.9999 17.851 34.9999Z" fill="#34A853"/>
<path d="M7.82662 20.8534C7.07873 18.6799 7.07873 16.3264 7.82662 14.153V9.64539H1.89597C-0.636364 14.5903 -0.636364 20.4161 1.89597 25.361L7.82662 20.8534Z" fill="#FBBC04"/>
<path d="M17.851 6.92537C20.3964 6.88679 22.8566 7.82561 24.7001 9.54892L29.7975 4.5526C26.5698 1.58181 22.2858 -0.0514836 17.851 -4.13986e-05C11.1003 -4.13986e-05 4.92689 3.72952 1.89597 9.64537L7.82661 14.153C9.2371 10.0055 13.193 6.92537 17.851 6.92537Z" fill="#EA4335"/>
</g>
<defs>
<clipPath id="clip0">
<rect width="35" height="35" fill="white"/>
</clipPath>
</defs>
</svg>
