<svg width="21" height="21" viewBox="0 0 21 21" fill="none" xmlns="http://www.w3.org/2000/svg">
<path d="M19.2827 2.57744C18.1964 1.40993 16.6744 0.745627 15.0797 0.743164C13.4838 0.745011 11.9602 1.40896 10.8723 2.5767L10.5015 2.96848L10.1308 2.5767C7.97213 0.253404 4.33875 0.119981 2.0155 2.27863C1.91256 2.37432 1.81313 2.4737 1.71744 2.5767C-0.572479 5.04665 -0.572479 8.86385 1.71744 11.3338L9.95668 20.0226C10.2417 20.3235 10.7168 20.3364 11.0177 20.0514C11.0275 20.042 11.0371 20.0325 11.0464 20.0226L19.2827 11.3338C21.5724 8.86411 21.5724 5.04713 19.2827 2.57744ZM18.1967 10.3003H18.1959L10.5015 18.4157L2.80646 10.3003C1.05709 8.41305 1.05709 5.4967 2.80646 3.60943C4.39509 1.88759 7.0788 1.77963 8.80064 3.36826C8.88424 3.4454 8.96467 3.52583 9.0418 3.60943L9.95668 4.57461C10.2582 4.87417 10.7449 4.87417 11.0464 4.57461L11.9613 3.61017C13.55 1.88834 16.2337 1.78038 17.9555 3.36901C18.0391 3.44614 18.1195 3.52658 18.1967 3.61017C19.9612 5.50044 19.9742 8.42211 18.1967 10.3003Z" fill="#676767"/>
</svg>
