<svg width="21" height="21" viewBox="0 0 21 21" fill="none" xmlns="http://www.w3.org/2000/svg">
<path d="M19.2827 2.57402C18.1965 1.40674 16.6744 0.742575 15.0797 0.740112C13.4838 0.741959 11.9602 1.40577 10.8723 2.57327L10.5015 2.96497L10.1308 2.57327C7.97213 0.250452 4.3388 0.117056 2.01551 2.27526C1.91256 2.37094 1.81313 2.4703 1.71744 2.57327C-0.572479 5.04272 -0.572479 8.85915 1.71744 11.3286L9.95668 20.0156C10.2417 20.3165 10.7168 20.3294 11.0177 20.0444C11.0275 20.0351 11.0371 20.0255 11.0464 20.0156L19.2827 11.3286C21.5724 8.85941 21.5724 5.04321 19.2827 2.57402Z" fill="#CD7575"/>
</svg>
