<svg width="25" height="25" viewBox="0 0 25 25" fill="none" xmlns="http://www.w3.org/2000/svg">
<path d="M9.66621 9.7103C9.45562 9.47978 9.15577 9.34477 8.84361 9.33994C8.21574 9.33188 7.69631 9.83247 7.68566 10.4599C7.68224 10.6621 7.84342 10.8288 8.04562 10.8322C8.04777 10.8323 8.04982 10.8323 8.05197 10.8323C8.25133 10.8323 8.41461 10.6724 8.41798 10.4722C8.42174 10.2481 8.60592 10.0684 8.83214 10.0723C8.94508 10.074 9.04923 10.1209 9.12545 10.2043C9.26187 10.3537 9.49356 10.3641 9.64283 10.2277C9.79214 10.0913 9.80264 9.85962 9.66621 9.7103Z" fill="#595959"/>
<path d="M11.6145 10.9038C11.5023 10.6399 11.2838 10.4317 11.0149 10.3324C10.4742 10.1329 9.87138 10.4101 9.67104 10.9502C9.60068 11.1399 9.69741 11.3506 9.88701 11.421C9.929 11.4366 9.97202 11.4439 10.0143 11.4439C10.1631 11.4439 10.3029 11.3526 10.3577 11.205C10.4179 11.0428 10.5992 10.9598 10.7613 11.0196C10.8428 11.0496 10.9064 11.1103 10.9405 11.1904C11.0196 11.3765 11.2348 11.4633 11.4208 11.3841C11.607 11.305 11.6936 11.0899 11.6145 10.9038Z" fill="#595959"/>
<path d="M13.9748 7.66036C13.8317 7.51744 13.5998 7.51773 13.457 7.66089L13.1118 8.00679C12.9689 8.14995 12.9691 8.38184 13.1123 8.52466C13.1837 8.596 13.2773 8.63164 13.3709 8.63164C13.4648 8.63164 13.5586 8.5958 13.6302 8.52412L13.9754 8.17823C14.1182 8.03506 14.118 7.80318 13.9748 7.66036Z" fill="#595959"/>
<path d="M11.6965 12.3881H11.2084C11.0061 12.3881 10.8422 12.5521 10.8422 12.7543C10.8422 12.9566 11.0061 13.1205 11.2084 13.1205H11.6965C11.8988 13.1205 12.0627 12.9566 12.0627 12.7543C12.0627 12.5521 11.8988 12.3881 11.6965 12.3881Z" fill="#595959"/>
<path d="M16.4388 12.3881H15.9507C15.7484 12.3881 15.5845 12.5521 15.5845 12.7543C15.5845 12.9566 15.7484 13.1205 15.9507 13.1205H16.4388C16.6411 13.1205 16.805 12.9566 16.805 12.7543C16.805 12.5521 16.6411 12.3881 16.4388 12.3881Z" fill="#595959"/>
<path d="M24.9882 18.9912L24.8929 18.4765C24.8321 18.1476 24.5449 17.9088 24.21 17.9088C24.1679 17.9088 24.1255 17.9127 24.0838 17.9204L22.1424 18.277L23.0216 17.6893C23.2521 17.5353 23.3685 17.2598 23.3183 16.9865C23.3043 16.9116 23.2781 16.8398 23.2402 16.7726L22.9742 16.3014C22.883 16.1396 22.7275 16.0193 22.5481 15.9716C22.4602 15.9482 22.3683 15.943 22.2787 15.9546C22.3766 15.4143 22.4271 14.8625 22.4271 14.3007C22.4271 14.0514 22.2772 13.8369 22.063 13.7417C22.3428 13.0762 22.3619 12.3144 22.0854 11.6168C22.063 11.56 22.0296 11.5094 21.9865 11.4662C21.9438 11.4235 21.8937 11.3904 21.8369 11.3676C21.5055 11.2356 21.1572 11.1687 20.8017 11.1687C20.7563 11.1687 20.711 11.1699 20.6659 11.172C20.6152 10.1499 19.7692 9.33396 18.7365 9.33396C18.6005 9.33396 18.4679 9.34842 18.3398 9.37537C18.4288 8.84315 18.3764 8.28636 18.1691 7.76361C18.1469 7.70614 18.1134 7.65458 18.0679 7.60839C18.0242 7.56464 17.9729 7.5309 17.9159 7.50829C17.559 7.3661 17.1838 7.29403 16.8008 7.29403C16.2238 7.29403 15.6719 7.45624 15.1954 7.7578C15.0214 7.25355 14.7343 6.78017 14.3332 6.37817C14.2158 6.26049 14.0595 6.19565 13.8933 6.19565C13.727 6.19565 13.5707 6.26049 13.4531 6.37826L11.68 8.15541C11.3519 7.86273 10.9201 7.68778 10.4515 7.68778C10.3451 7.68778 10.2378 7.69711 10.1323 7.71547C9.75035 7.78197 9.39884 7.96893 9.12936 8.24276C8.7838 8.07601 8.38795 8.01913 8.00754 8.08534C7.92385 8.09989 7.84264 8.1204 7.76384 8.1454V6.77597C7.76384 5.8329 7.00588 5.0643 6.06829 5.04809V4.27144C6.3553 4.22178 6.57444 3.97163 6.57444 3.67066V1.91095C6.57444 1.57443 6.30066 1.3006 5.96409 1.3006H2.98602C2.64945 1.3006 2.37567 1.57443 2.37567 1.91095V3.67066C2.37567 3.97163 2.59481 4.22178 2.88182 4.27144V5.048C1.94423 5.06416 1.18632 5.83276 1.18632 6.77587V17.4641C0.455174 18.1244 0 19.0457 0 20.0646C0 22.0688 1.75903 23.6993 3.92122 23.6993L18.5787 23.695C19.079 23.6948 19.5495 23.475 19.8695 23.0919C20.1813 22.7189 20.3137 22.2345 20.2374 21.7568L23.165 22.2829C23.2055 22.2902 23.247 22.2939 23.2882 22.2939C23.4342 22.2939 23.5741 22.2491 23.6925 22.1644C23.8448 22.0556 23.9479 21.8872 23.9754 21.7025L24.0547 21.1704C24.0661 21.0942 24.0648 21.0174 24.0509 20.9422C24.0005 20.6701 23.7934 20.4542 23.5231 20.3923L22.4912 20.1556L24.4307 19.7993C24.6136 19.7657 24.7723 19.663 24.8776 19.5101C24.9827 19.3577 25.0219 19.1734 24.9882 18.9912ZM20.8017 11.901C21.0222 11.901 21.2389 11.936 21.4473 12.0048C21.6336 12.5718 21.5638 13.1835 21.2722 13.6888H20.2857L20.6005 13.3733C20.7434 13.2301 20.7431 12.9982 20.5999 12.8553C20.4567 12.7125 20.2248 12.7127 20.082 12.8559L19.9154 13.0229C19.8374 12.7658 19.701 12.5356 19.5218 12.3468C19.8853 12.0582 20.3315 11.901 20.8017 11.901ZM18.7365 10.0663C19.3979 10.0663 19.9359 10.6059 19.9359 11.2693C19.9359 11.2816 19.9353 11.2937 19.935 11.3059C19.5489 11.4315 19.1931 11.6412 18.8897 11.926C18.8414 11.9077 18.7924 11.8907 18.7421 11.8768C18.635 11.2981 18.245 10.8342 17.7298 10.6176C17.9436 10.2863 18.3146 10.0663 18.7365 10.0663ZM16.8007 8.02635C17.0494 8.02635 17.2939 8.06659 17.5294 8.14618C17.7187 8.70907 17.6801 9.3137 17.4388 9.83743C17.2406 10.018 17.0797 10.2392 16.9697 10.4879C16.9043 10.4917 16.8389 10.4989 16.7743 10.5101C16.4874 10.5601 16.2198 10.6846 15.9959 10.8652C15.9195 10.7255 15.826 10.5967 15.7189 10.4806L16.5587 9.63894C16.7015 9.49578 16.7013 9.2639 16.558 9.12108C16.4149 8.9782 16.183 8.97845 16.0401 9.12166L15.1223 10.0416C14.9476 9.95906 14.7588 9.90164 14.5604 9.87478C14.6461 9.43777 14.8582 9.02601 15.1862 8.6972C15.6178 8.26458 16.1912 8.02635 16.8007 8.02635ZM13.9946 13.6888H13.6771C13.6237 13.5527 13.4915 13.4563 13.3365 13.4563C13.1814 13.4563 13.0493 13.5528 12.9958 13.6888H12.6224C12.7091 13.5476 12.6916 13.3605 12.5691 13.2383C12.426 13.0954 12.1941 13.0957 12.0512 13.2388L11.7061 13.5847C11.6751 13.6158 11.6512 13.6512 11.6337 13.6888H10.8883C10.6092 13.2604 10.4388 12.7548 10.4187 12.2109H16.2285C16.2083 12.7548 16.038 13.2604 15.7588 13.6888H14.9832C14.9657 13.6512 14.9418 13.6157 14.9108 13.5847L14.5657 13.2388C14.4228 13.0957 14.191 13.0953 14.0478 13.2382C13.9253 13.3604 13.9078 13.5475 13.9946 13.6888ZM13.1429 11.4784C13.2809 10.9669 13.7476 10.5894 14.3006 10.5894C14.8537 10.5894 15.3203 10.9669 15.4583 11.4784H13.1429ZM13.8917 6.97548C14.2401 7.35194 14.4704 7.79891 14.5833 8.26873C14.3964 8.47191 14.2411 8.69642 14.1185 8.93533C14.0629 8.90125 13.9977 8.88128 13.9278 8.88128H13.4398C13.2375 8.88128 13.0736 9.04525 13.0736 9.24749C13.0736 9.44974 13.2375 9.6137 13.4398 9.6137H13.8679C13.8438 9.71482 13.8251 9.81717 13.8115 9.92029C13.6661 9.95847 13.5272 10.0129 13.3973 10.0821C13.1532 9.66087 12.749 9.34695 12.2701 9.22103C12.2699 9.22 12.2697 9.21898 12.2695 9.21795C12.2408 9.05223 12.1907 8.895 12.1224 8.74886L13.8917 6.97548ZM7.27175 10.28C7.25026 10.2199 7.234 10.1583 7.22331 10.0965C7.11828 9.49095 7.52648 8.91243 8.13307 8.80682C8.19704 8.79569 8.26203 8.79002 8.32619 8.79002C8.56745 8.79002 8.79801 8.86697 8.99288 9.01253C9.0735 9.07278 9.17545 9.09715 9.27467 9.07996C9.37389 9.06273 9.46163 9.00545 9.5173 8.92152C9.68922 8.66219 9.95226 8.49012 10.2579 8.4369C10.322 8.42572 10.3872 8.4201 10.4515 8.4201C10.994 8.4201 11.4552 8.80828 11.5479 9.34319C11.5585 9.40447 11.564 9.46834 11.5641 9.53304C11.5644 9.72259 11.7094 9.88059 11.8982 9.89719C12.3077 9.93318 12.6562 10.1908 12.8178 10.5538C12.6015 10.8135 12.4515 11.1304 12.3946 11.4784H10.3061C10.0464 11.4784 9.82364 11.6387 9.73072 11.8656C9.27125 11.5527 8.72975 11.3841 8.16227 11.3841C7.80676 11.3841 7.45847 11.451 7.12683 11.583C7.07058 11.6055 7.02028 11.6386 6.97741 11.6815C6.93396 11.725 6.90061 11.7759 6.87873 11.8318C6.79446 12.0443 6.73826 12.2628 6.70788 12.4827C6.57663 12.3333 6.48415 12.1475 6.44802 11.939C6.36189 11.4421 6.62199 10.9474 7.08034 10.7359C7.25261 10.6564 7.33566 10.4585 7.27175 10.28ZM8.36344 13.5886L8.46335 13.6888H7.58381C7.38635 13.2307 7.35637 12.7092 7.51667 12.2202C7.72536 12.1513 7.94201 12.1164 8.16227 12.1164C8.71408 12.1164 9.23317 12.3321 9.62384 12.7236C9.67579 12.7757 9.72418 12.8303 9.76964 12.8867C9.8317 13.1677 9.92706 13.4361 10.0499 13.6887H9.49801L8.88195 13.0713C8.73903 12.9281 8.50714 12.9277 8.36408 13.0707C8.22087 13.2136 8.22057 13.4455 8.36344 13.5886ZM6.80388 13.6888H5.49837C5.55657 13.334 5.76995 13.0317 6.06614 12.8533C6.24148 13.0882 6.47034 13.2782 6.73401 13.4068C6.75266 13.5019 6.77556 13.5961 6.80388 13.6888ZM3.10809 2.03302H5.84202V3.54859H3.10809V2.03302ZM5.33587 4.28101V5.04726H3.61429V4.28101H5.33587ZM1.91879 8.26102H4.29686C4.49915 8.26102 4.66307 8.09706 4.66307 7.89481C4.66307 7.69256 4.49915 7.5286 4.29686 7.5286H1.91879V6.77587C1.91879 6.22655 2.3643 5.77968 2.9119 5.77968H6.03826C6.58591 5.77968 7.03142 6.22655 7.03142 6.77587V7.5286H6.34763C6.14534 7.5286 5.98142 7.69256 5.98142 7.89481C5.98142 8.09706 6.14534 8.26102 6.34763 8.26102H7.03142V8.58607C6.61184 8.99744 6.39392 9.60071 6.50154 10.2213C6.50173 10.2225 6.50198 10.2238 6.50217 10.225C5.91467 10.6281 5.60164 11.3447 5.7263 12.0641C5.73357 12.1061 5.7427 12.1474 5.75266 12.1883C5.5697 12.2891 5.4054 12.4194 5.26458 12.5718H1.91879V8.26102ZM1.91874 13.3042H4.83934C4.80047 13.4276 4.77303 13.5561 4.75965 13.6888H4.69793C4.36087 13.6888 4.08661 13.9632 4.08661 14.3006C4.08661 14.8821 4.14066 15.4529 4.24539 16.0114C4.14017 16.003 4.03226 15.9984 3.92249 15.9984C3.47962 15.9984 3.05765 16.0687 2.73446 16.1963C2.24008 16.3916 2.10341 16.6688 2.07358 16.8605C2.02118 16.8866 1.96972 16.9142 1.91874 16.9423V13.3042ZM6.55598 17.803C6.68786 17.9085 6.76848 17.9982 6.81521 18.0629C6.81081 18.0629 6.80622 18.063 6.80158 18.063C6.59431 18.063 6.2219 17.9794 5.79841 17.745C5.64075 17.6577 5.49549 17.559 5.3783 17.4597C5.24168 17.3439 5.04134 17.344 4.90481 17.4598C4.78763 17.5591 4.64241 17.6578 4.48489 17.7449C4.06131 17.9794 3.6889 18.063 3.48168 18.063C3.47694 18.063 3.4724 18.0629 3.46796 18.0629C3.51463 17.9982 3.59525 17.9084 3.72718 17.8029C3.84247 17.7106 3.89105 17.5581 3.85038 17.4161C3.80965 17.2741 3.68768 17.1705 3.54095 17.1533C3.18358 17.1114 2.95761 17.0204 2.8518 16.9542C2.98436 16.8716 3.31952 16.7309 3.92264 16.7309C4.42215 16.7309 4.78724 16.8359 4.96233 16.9342C5.07371 16.9967 5.2095 16.9967 5.32088 16.9343C5.49607 16.8359 5.86121 16.7309 6.36072 16.7309C6.96389 16.7309 7.29899 16.8717 7.43151 16.9542C7.32575 17.0205 7.09973 17.1114 6.74226 17.1533C6.59553 17.1706 6.47351 17.2742 6.43284 17.4162C6.39202 17.5582 6.4406 17.7107 6.55598 17.803ZM5.82341 22.2603L5.83601 22.3282C5.87957 22.5634 5.97141 22.7792 6.09973 22.9669H3.92122C2.16293 22.9669 0.732419 21.665 0.732419 20.0646C0.732419 18.9709 1.40078 18.017 2.38495 17.5224C2.49799 17.6067 2.63891 17.6795 2.80609 17.7382C2.73978 17.8514 2.69359 17.9732 2.6827 18.1002C2.66825 18.269 2.71991 18.4294 2.82831 18.5518C2.97152 18.7135 3.19134 18.7955 3.48168 18.7955C3.86859 18.7955 4.37625 18.6423 4.83963 18.3857C4.94632 18.3267 5.0472 18.2643 5.14163 18.1992C5.23601 18.2643 5.33689 18.3267 5.44363 18.3858C5.90701 18.6423 6.41467 18.7954 6.80158 18.7955H6.80163C7.09187 18.7955 7.31169 18.7135 7.45485 18.5518C7.5633 18.4294 7.61501 18.2691 7.60051 18.1002C7.58962 17.9732 7.54343 17.8514 7.47712 17.7382C7.64431 17.6794 7.78527 17.6067 7.89831 17.5224C8.67882 17.9146 9.26041 18.5958 9.46778 19.4065L6.87771 20.3905C6.11956 20.6785 5.67615 21.4649 5.82341 22.2603ZM19.3074 22.6223C19.1269 22.8385 18.8611 22.9625 18.5784 22.9626L18.194 22.9628L17.9539 21.6661C17.917 21.4673 17.7261 21.3358 17.5271 21.3727C17.3283 21.4096 17.1969 21.6006 17.2337 21.7995L17.4492 22.963L16.1891 22.9635L16.0268 22.0867C15.9899 21.8878 15.7989 21.7565 15.6 21.7933C15.4012 21.8301 15.2698 22.0212 15.3066 22.22L15.4443 22.9638L12.5134 22.9649L12.2928 21.7741C12.2559 21.5752 12.0649 21.4439 11.866 21.4807C11.6671 21.5176 11.5357 21.7087 11.5726 21.9075L11.7685 22.9652L7.48903 22.9669C7.48894 22.9669 7.48884 22.9669 7.48874 22.9669C7.03112 22.9669 6.63894 22.6422 6.55603 22.1946L6.54343 22.1267C6.46067 21.6797 6.71057 21.2374 7.13767 21.0751L8.57697 20.5284L8.68419 21.1071C8.71686 21.2834 8.87077 21.4066 9.04381 21.4066C9.06598 21.4066 9.08844 21.4046 9.111 21.4004C9.30983 21.3636 9.44117 21.1725 9.40431 20.9736L9.27281 20.264L11.4093 19.4524C11.5983 19.3806 11.6934 19.169 11.6216 18.98C11.5498 18.7909 11.338 18.6958 11.1492 18.7677L10.155 19.1454C9.87613 18.1579 9.15963 17.3331 8.20949 16.8605C8.17966 16.6687 8.04299 16.3915 7.54865 16.1963C7.22546 16.0687 6.80349 15.9984 6.36062 15.9984C6.05584 15.9984 5.76477 16.032 5.50784 16.0933V15.8721C5.50784 15.6699 5.34392 15.5059 5.14163 15.5059C5.05613 15.5059 4.97771 15.5354 4.91536 15.5845C4.8576 15.2025 4.82527 14.8146 4.8199 14.4211H16.748C16.9503 14.4211 17.1142 14.2571 17.1142 14.0549C17.1142 13.8526 16.9503 13.6887 16.748 13.6887H16.5981C16.8313 13.2084 16.9631 12.6699 16.9631 12.1008C16.9631 11.7778 16.7159 11.5116 16.4008 11.4814C16.538 11.352 16.7092 11.2648 16.9 11.2316C16.9559 11.2218 17.0126 11.2169 17.0687 11.2169C17.5415 11.2169 17.9432 11.5551 18.024 12.0211C18.0333 12.075 18.0381 12.1307 18.0381 12.1866C18.0384 12.3762 18.1834 12.5343 18.3723 12.5509C18.8099 12.5894 19.168 12.9185 19.243 13.3513C19.263 13.4664 19.2605 13.58 19.2405 13.6887H18.8476C18.6453 13.6887 18.4814 13.8526 18.4814 14.0549C18.4814 14.2571 18.6453 14.4211 18.8476 14.4211H21.6939C21.6848 15.0929 21.5983 15.7491 21.4369 16.3857L19.4522 17.5573C19.3308 17.1349 19.0487 16.7765 18.66 16.5589C18.224 16.3149 17.7059 16.2768 17.2386 16.4543L13.1512 18.0071C12.9621 18.0789 12.867 18.2905 12.9389 18.4795C13.0107 18.6686 13.2224 18.7636 13.4112 18.6918L13.9497 18.4873L14.1169 19.39C14.1496 19.5663 14.3035 19.6896 14.4766 19.6896C14.4987 19.6896 14.5211 19.6875 14.5437 19.6834C14.7425 19.6466 14.8739 19.4555 14.8371 19.2566L14.6456 18.2229L17.4986 17.1391C17.763 17.0387 18.0558 17.0603 18.3023 17.1982C18.5483 17.3358 18.7187 17.5731 18.7698 17.8491L19.5107 21.8489C19.5618 22.1247 19.4877 22.4066 19.3074 22.6223ZM20.6141 19.7558C20.4432 19.7872 20.318 19.9343 20.3141 20.1079C20.3103 20.2816 20.4291 20.4341 20.5984 20.4729L23.3249 21.0983L23.2568 21.5553L20.096 20.9872L19.6019 18.3196L22.355 16.6944L22.5843 17.1005L20.2622 18.6528C20.1178 18.7493 20.0611 18.934 20.1264 19.0949C20.1917 19.2558 20.3611 19.3488 20.5319 19.3174L24.1796 18.6474L24.2609 19.0858L20.6141 19.7558Z" fill="#595959"/>
</svg>
