<svg width="19" height="19" viewBox="0 0 19 19" fill="none" xmlns="http://www.w3.org/2000/svg">
<path d="M14.25 2.37501C14.0448 2.37501 13.8337 2.39581 13.618 2.42756C12.8015 0.98599 11.2715 0 9.5 0C7.72845 0 6.1985 0.986024 5.38202 2.42756C5.16632 2.39581 4.95526 2.37501 4.75002 2.37501C2.1309 2.37501 0 4.50532 0 7.12499C0 8.83667 0.900494 10.3744 2.37501 11.2244V17.2188C2.37501 18.201 3.17401 19 4.15626 19H14.8438C15.826 19 16.625 18.201 16.625 17.2188V11.2244C18.0995 10.3744 19 8.83667 19 7.12499C19 4.50532 16.8691 2.37501 14.25 2.37501ZM14.8437 17.8125H4.15626C3.82865 17.8125 3.5625 17.5458 3.5625 17.2188V15.4375H15.4375V17.2188C15.4375 17.5458 15.1714 17.8125 14.8437 17.8125ZM15.775 10.3303C15.5692 10.4289 15.4375 10.6377 15.4375 10.8661V14.25H3.5625V10.8661C3.5625 10.6377 3.43088 10.4289 3.22502 10.3303C1.96796 9.72963 1.18749 8.50152 1.18749 7.12503C1.18749 5.16054 2.7855 3.56253 4.74998 3.56253C4.80043 3.56253 4.86058 3.58028 4.91227 3.58296C4.81653 3.95847 4.74998 4.34506 4.74998 4.75002C4.74998 5.07821 5.01555 5.34378 5.34374 5.34378C5.67194 5.34378 5.9375 5.07821 5.9375 4.75002C5.9375 2.78553 7.53552 1.18752 9.5 1.18752C11.4645 1.18752 13.0625 2.78553 13.0625 4.75002C13.0625 5.07821 13.3281 5.34378 13.6563 5.34378C13.9845 5.34378 14.25 5.07821 14.25 4.75002C14.25 4.34506 14.1835 3.95847 14.0877 3.58296C14.1394 3.58028 14.1996 3.56253 14.25 3.56253C16.2145 3.56253 17.8125 5.16054 17.8125 7.12503C17.8125 8.50152 17.032 9.72963 15.775 10.3303Z" fill="#CD7575"/>
</svg>
