<svg width="19" height="19" viewBox="0 0 19 19" fill="none" xmlns="http://www.w3.org/2000/svg">
<path d="M19 7.125C19 4.50161 16.8734 2.37499 14.25 2.37499C14.2297 2.37499 14.211 2.38073 14.1908 2.38093C14.215 2.57567 14.25 2.7674 14.25 2.96873C14.25 3.27482 14.2159 3.5724 14.1606 3.86224C13.744 1.66405 11.8193 0 9.50002 0C7.18071 0 5.25599 1.66405 4.83947 3.86227C4.7841 3.57244 4.75004 3.27482 4.75004 2.96876C4.75004 2.7674 4.78499 2.5757 4.80927 2.38096C4.78905 2.38076 4.77037 2.37502 4.75004 2.37502C2.12662 2.37499 0 4.50161 0 7.125C0 9.33466 1.51591 11.1753 3.55953 11.7061C3.17924 11.8051 2.78717 11.875 2.37499 11.875V16.625C2.37499 17.9343 3.44014 19 4.74997 19H14.25C15.5598 19 16.6249 17.9343 16.6249 16.625V11.2162C18.0389 10.3933 19 8.87871 19 7.125Z" fill="#CD7575"/>
</svg>