<svg width="28" height="28" viewBox="0 0 28 28" fill="none" xmlns="http://www.w3.org/2000/svg">
<g clip-path="url(#clip0)">
<path d="M8.62513 16.6152C5.26403 11.869 6.38815 5.29699 11.1343 1.93669C15.8805 -1.4236 22.4525 -0.300291 25.8128 4.44668C29.1731 9.19284 28.0498 15.7641 23.3028 19.1244C19.9152 21.5228 15.4365 21.7074 11.8634 19.5973L4.09978 27.3143C3.26151 28.1968 1.8668 28.2321 0.984375 27.3938C0.101946 26.5564 0.0666161 25.1617 0.904081 24.2792C0.930578 24.2511 0.956272 24.2254 0.984375 24.1989L8.62513 16.6152ZM17.2254 17.3346C20.9759 17.3354 24.0166 14.2971 24.0191 10.5466C24.0199 6.79607 20.9815 3.75535 17.2302 3.75374C13.4845 3.75214 10.4454 6.78564 10.4382 10.5313C10.4317 14.2827 13.4685 17.3282 17.2206 17.3346C17.2222 17.3346 17.223 17.3346 17.2254 17.3346Z" fill="#CD7575"/>
</g>
<defs>
<clipPath id="clip0">
<rect width="28" height="28" fill="white" transform="matrix(-1 0 0 1 28 0)"/>
</clipPath>
</defs>
</svg>
